<svg width="28" height="28" viewBox="0 0 28 28" fill="none" xmlns="http://www.w3.org/2000/svg">
<path d="M11.7483 0.78333C12.379 0.27738 13.1763 0 14 0C14.8237 0 15.621 0.27738 16.2517 0.78333L26.7517 9.21321C27.1425 9.52679 27.4568 9.91819 27.6724 10.36C27.8881 10.8018 27.9999 11.2833 28 11.7707V25.7722C28 26.3631 27.7542 26.9297 27.3166 27.3475C26.879 27.7653 26.2855 28 25.6667 28H19.25C18.6312 28 18.0377 27.7653 17.6001 27.3475C17.1625 26.9297 16.9167 26.3631 16.9167 25.7722V17.975H11.0833V25.7722C11.0833 26.3631 10.8375 26.9297 10.3999 27.3475C9.96233 27.7653 9.36884 28 8.75 28H2.33333C1.71449 28 1.121 27.7653 0.683417 27.3475C0.245833 26.9297 0 26.3631 0 25.7722V11.7696C0.000129103 11.2822 0.111937 10.8007 0.327583 10.3589C0.543228 9.91708 0.857492 9.52567 1.24833 9.2121L11.7483 0.782216V0.78333ZM14.7513 2.48757C14.541 2.31854 14.2749 2.22584 14 2.22584C13.7251 2.22584 13.459 2.31854 13.2487 2.48757L2.74867 10.9197C2.61888 11.024 2.51448 11.1541 2.44275 11.3009C2.37102 11.4476 2.33368 11.6076 2.33333 11.7696V25.7711H8.75V17.9739C8.75 17.3831 8.99583 16.8164 9.43342 16.3986C9.871 15.9809 10.4645 15.7462 11.0833 15.7462H16.9167C17.5355 15.7462 18.129 15.9809 18.5666 16.3986C19.0042 16.8164 19.25 17.3831 19.25 17.9739V25.7711H25.6667V11.7696C25.6667 11.6072 25.6295 11.4468 25.5577 11.2996C25.486 11.1525 25.3814 11.022 25.2513 10.9175L14.7513 2.48757Z" fill="#0B2549"/>
</svg>
